solid 
 facet normal  1.000000e+00  0.000000e+00  0.000000e+00
   outer loop
     vertex  3.000000e+00 -6.000000e+00  6.000000e+00
     vertex  3.000000e+00 -6.000000e+00  5.000000e+00
     vertex  3.000000e+00  5.551115e-16  5.000000e+00
   endloop
 endfacet
 facet normal  1.000000e+00  0.000000e+00  0.000000e+00
   outer loop
     vertex  3.000000e+00 -6.000000e+00  6.000000e+00
     vertex  3.000000e+00  5.551115e-16  5.000000e+00
     vertex  3.000000e+00  6.661338e-16  6.000000e+00
   endloop
 endfacet
 facet normal  5.547002e-01 -1.231682e-16 -8.320503e-01
   outer loop
     vertex  6.000000e+00 -6.000000e+00  5.000000e+00
     vertex  4.500000e+00 -6.000000e+00  4.000000e+00
     vertex  4.500000e+00  4.440892e-16  4.000000e+00
   endloop
 endfacet
 facet normal  5.547002e-01 -1.231682e-16 -8.320503e-01
   outer loop
     vertex  6.000000e+00 -6.000000e+00  5.000000e+00
     vertex  4.500000e+00  4.440892e-16  4.000000e+00
     vertex  6.000000e+00  5.551115e-16  5.000000e+00
   endloop
 endfacet
 facet normal  1.000000e+00  0.000000e+00  0.000000e+00
   outer loop
     vertex  6.000000e+00 -6.000000e+00  6.000000e+00
     vertex  6.000000e+00 -6.000000e+00  5.000000e+00
     vertex  6.000000e+00  5.551115e-16  5.000000e+00
   endloop
 endfacet
 facet normal  1.000000e+00  0.000000e+00  0.000000e+00
   outer loop
     vertex  6.000000e+00 -6.000000e+00  6.000000e+00
     vertex  6.000000e+00  5.551115e-16  5.000000e+00
     vertex  6.000000e+00  6.661338e-16  6.000000e+00
   endloop
 endfacet
 facet normal -5.547002e-01 -1.231682e-16 -8.320503e-01
   outer loop
     vertex  6.000000e+00 -6.000000e+00  1.000000e+00
     vertex  4.500000e+00 -6.000000e+00  2.000000e+00
     vertex  4.500000e+00  2.220446e-16  2.000000e+00
   endloop
 endfacet
 facet normal -5.547002e-01 -9.237614e-17 -8.320503e-01
   outer loop
     vertex  6.000000e+00 -6.000000e+00  1.000000e+00
     vertex  4.500000e+00  2.220446e-16  2.000000e+00
     vertex  6.000000e+00  1.110223e-16  1.000000e+00
   endloop
 endfacet
 facet normal -1.000000e+00  0.000000e+00  0.000000e+00
   outer loop
     vertex  6.000000e+00 -6.000000e+00  6.661338e-16
     vertex  6.000000e+00 -6.000000e+00  1.000000e+00
     vertex  6.000000e+00  1.110223e-16  1.000000e+00
   endloop
 endfacet
 facet normal -1.000000e+00  0.000000e+00  0.000000e+00
   outer loop
     vertex  6.000000e+00 -6.000000e+00  6.661338e-16
     vertex  6.000000e+00  1.110223e-16  1.000000e+00
     vertex  6.000000e+00  0.000000e+00  0.000000e+00
   endloop
 endfacet
 facet normal -1.000000e+00  0.000000e+00  0.000000e+00
   outer loop
     vertex  3.000000e+00 -6.000000e+00  6.661338e-16
     vertex  3.000000e+00 -6.000000e+00  1.000000e+00
     vertex  3.000000e+00  1.110223e-16  1.000000e+00
   endloop
 endfacet
 facet normal -1.000000e+00  0.000000e+00  0.000000e+00
   outer loop
     vertex  3.000000e+00 -6.000000e+00  6.661338e-16
     vertex  3.000000e+00  1.110223e-16  1.000000e+00
     vertex  3.000000e+00  0.000000e+00  0.000000e+00
   endloop
 endfacet
 facet normal -5.547002e-01  1.231682e-16  8.320503e-01
   outer loop
     vertex  0.000000e+00 -6.000000e+00  1.000000e+00
     vertex  1.500000e+00 -6.000000e+00  2.000000e+00
     vertex  1.500000e+00  2.220446e-16  2.000000e+00
   endloop
 endfacet
 facet normal -5.547002e-01  9.237614e-17  8.320503e-01
   outer loop
     vertex  0.000000e+00 -6.000000e+00  1.000000e+00
     vertex  1.500000e+00  2.220446e-16  2.000000e+00
     vertex  0.000000e+00  1.110223e-16  1.000000e+00
   endloop
 endfacet
 facet normal -1.000000e+00  0.000000e+00  0.000000e+00
   outer loop
     vertex  0.000000e+00 -6.000000e+00  6.661338e-16
     vertex  0.000000e+00 -6.000000e+00  1.000000e+00
     vertex  0.000000e+00  1.110223e-16  1.000000e+00
   endloop
 endfacet
 facet normal -1.000000e+00  0.000000e+00  0.000000e+00
   outer loop
     vertex  0.000000e+00 -6.000000e+00  6.661338e-16
     vertex  0.000000e+00  1.110223e-16  1.000000e+00
     vertex  0.000000e+00  0.000000e+00  0.000000e+00
   endloop
 endfacet
 facet normal -1.000000e+00  0.000000e+00  0.000000e+00
   outer loop
     vertex  0.000000e+00 -6.000000e+00  5.000000e+00
     vertex  0.000000e+00 -6.000000e+00  6.000000e+00
     vertex  0.000000e+00  6.661338e-16  6.000000e+00
   endloop
 endfacet
 facet normal -1.000000e+00  0.000000e+00  0.000000e+00
   outer loop
     vertex  0.000000e+00 -6.000000e+00  5.000000e+00
     vertex  0.000000e+00  6.661338e-16  6.000000e+00
     vertex  0.000000e+00  5.551115e-16  5.000000e+00
   endloop
 endfacet
 facet normal -5.547002e-01 -1.231682e-16 -8.320503e-01
   outer loop
     vertex  1.500000e+00 -6.000000e+00  4.000000e+00
     vertex  0.000000e+00 -6.000000e+00  5.000000e+00
     vertex  0.000000e+00  5.551115e-16  5.000000e+00
   endloop
 endfacet
 facet normal -5.547002e-01 -1.231682e-16 -8.320503e-01
   outer loop
     vertex  1.500000e+00 -6.000000e+00  4.000000e+00
     vertex  0.000000e+00  5.551115e-16  5.000000e+00
     vertex  1.500000e+00  4.440892e-16  4.000000e+00
   endloop
 endfacet
 facet normal -1.000000e+00  0.000000e+00  0.000000e+00
   outer loop
     vertex  1.500000e+00 -6.000000e+00  2.000000e+00
     vertex  1.500000e+00 -6.000000e+00  4.000000e+00
     vertex  1.500000e+00  4.440892e-16  4.000000e+00
   endloop
 endfacet
 facet normal -1.000000e+00  0.000000e+00  0.000000e+00
   outer loop
     vertex  1.500000e+00 -6.000000e+00  2.000000e+00
     vertex  1.500000e+00  4.440892e-16  4.000000e+00
     vertex  1.500000e+00  2.220446e-16  2.000000e+00
   endloop
 endfacet
 facet normal -5.547002e-01 -1.231682e-16 -8.320503e-01
   outer loop
     vertex  3.000000e+00 -6.000000e+00  1.000000e+00
     vertex  1.500000e+00 -6.000000e+00  2.000000e+00
     vertex  1.500000e+00  2.220446e-16  2.000000e+00
   endloop
 endfacet
 facet normal -5.547002e-01 -9.237614e-17 -8.320503e-01
   outer loop
     vertex  3.000000e+00 -6.000000e+00  1.000000e+00
     vertex  1.500000e+00  2.220446e-16  2.000000e+00
     vertex  3.000000e+00  1.110223e-16  1.000000e+00
   endloop
 endfacet
 facet normal  5.547002e-01 -8.211212e-17 -8.320503e-01
   outer loop
     vertex  4.500000e+00 -6.000000e+00  2.000000e+00
     vertex  3.000000e+00 -6.000000e+00  1.000000e+00
     vertex  3.000000e+00  1.110223e-16  1.000000e+00
   endloop
 endfacet
 facet normal  5.547002e-01 -1.231682e-16 -8.320503e-01
   outer loop
     vertex  4.500000e+00 -6.000000e+00  2.000000e+00
     vertex  3.000000e+00  1.110223e-16  1.000000e+00
     vertex  4.500000e+00  2.220446e-16  2.000000e+00
   endloop
 endfacet
 facet normal  1.000000e+00  0.000000e+00  0.000000e+00
   outer loop
     vertex  4.500000e+00 -6.000000e+00  4.000000e+00
     vertex  4.500000e+00 -6.000000e+00  2.000000e+00
     vertex  4.500000e+00  2.220446e-16  2.000000e+00
   endloop
 endfacet
 facet normal  1.000000e+00  0.000000e+00  0.000000e+00
   outer loop
     vertex  4.500000e+00 -6.000000e+00  4.000000e+00
     vertex  4.500000e+00  2.220446e-16  2.000000e+00
     vertex  4.500000e+00  4.440892e-16  4.000000e+00
   endloop
 endfacet
 facet normal  5.547002e-01  1.231682e-16  8.320503e-01
   outer loop
     vertex  3.000000e+00 -6.000000e+00  5.000000e+00
     vertex  4.500000e+00 -6.000000e+00  4.000000e+00
     vertex  4.500000e+00  4.440892e-16  4.000000e+00
   endloop
 endfacet
 facet normal  5.547002e-01  1.231682e-16  8.320503e-01
   outer loop
     vertex  3.000000e+00 -6.000000e+00  5.000000e+00
     vertex  4.500000e+00  4.440892e-16  4.000000e+00
     vertex  3.000000e+00  5.551115e-16  5.000000e+00
   endloop
 endfacet
 facet normal -5.547002e-01  1.231682e-16  8.320503e-01
   outer loop
     vertex  1.500000e+00 -6.000000e+00  4.000000e+00
     vertex  3.000000e+00 -6.000000e+00  5.000000e+00
     vertex  3.000000e+00  5.551115e-16  5.000000e+00
   endloop
 endfacet
 facet normal -5.547002e-01  1.231682e-16  8.320503e-01
   outer loop
     vertex  1.500000e+00 -6.000000e+00  4.000000e+00
     vertex  3.000000e+00  5.551115e-16  5.000000e+00
     vertex  1.500000e+00  4.440892e-16  4.000000e+00
   endloop
 endfacet
endsolid
