solid 
 facet normal  1.000000e+00  0.000000e+00  0.000000e+00
   outer loop
     vertex  3.000000e+00  6.000000e+00  6.000000e+00
     vertex  3.000000e+00  5.000000e+00  6.000000e+00
     vertex  3.000000e+00  5.000000e+00  0.000000e+00
   endloop
 endfacet
 facet normal  1.000000e+00  0.000000e+00  0.000000e+00
   outer loop
     vertex  3.000000e+00  6.000000e+00  6.000000e+00
     vertex  3.000000e+00  5.000000e+00  0.000000e+00
     vertex  3.000000e+00  6.000000e+00  0.000000e+00
   endloop
 endfacet
 facet normal  5.547002e-01 -8.320503e-01  0.000000e+00
   outer loop
     vertex  6.000000e+00  5.000000e+00  6.000000e+00
     vertex  4.500000e+00  4.000000e+00  6.000000e+00
     vertex  4.500000e+00  4.000000e+00  0.000000e+00
   endloop
 endfacet
 facet normal  5.547002e-01 -8.320503e-01  0.000000e+00
   outer loop
     vertex  6.000000e+00  5.000000e+00  6.000000e+00
     vertex  4.500000e+00  4.000000e+00  0.000000e+00
     vertex  6.000000e+00  5.000000e+00  0.000000e+00
   endloop
 endfacet
 facet normal  1.000000e+00  0.000000e+00  0.000000e+00
   outer loop
     vertex  6.000000e+00  6.000000e+00  6.000000e+00
     vertex  6.000000e+00  5.000000e+00  6.000000e+00
     vertex  6.000000e+00  5.000000e+00  0.000000e+00
   endloop
 endfacet
 facet normal  1.000000e+00  0.000000e+00  0.000000e+00
   outer loop
     vertex  6.000000e+00  6.000000e+00  6.000000e+00
     vertex  6.000000e+00  5.000000e+00  0.000000e+00
     vertex  6.000000e+00  6.000000e+00  0.000000e+00
   endloop
 endfacet
 facet normal -5.547002e-01 -8.320503e-01  0.000000e+00
   outer loop
     vertex  6.000000e+00  1.000000e+00  6.000000e+00
     vertex  4.500000e+00  2.000000e+00  6.000000e+00
     vertex  4.500000e+00  2.000000e+00  0.000000e+00
   endloop
 endfacet
 facet normal -5.547002e-01 -8.320503e-01 -0.000000e+00
   outer loop
     vertex  6.000000e+00  1.000000e+00  6.000000e+00
     vertex  4.500000e+00  2.000000e+00  0.000000e+00
     vertex  6.000000e+00  1.000000e+00  0.000000e+00
   endloop
 endfacet
 facet normal -1.000000e+00  0.000000e+00  0.000000e+00
   outer loop
     vertex  6.000000e+00  0.000000e+00  6.000000e+00
     vertex  6.000000e+00  1.000000e+00  6.000000e+00
     vertex  6.000000e+00  1.000000e+00  0.000000e+00
   endloop
 endfacet
 facet normal -1.000000e+00  0.000000e+00  0.000000e+00
   outer loop
     vertex  6.000000e+00  0.000000e+00  6.000000e+00
     vertex  6.000000e+00  1.000000e+00  0.000000e+00
     vertex  6.000000e+00  0.000000e+00  0.000000e+00
   endloop
 endfacet
 facet normal -1.000000e+00  0.000000e+00  0.000000e+00
   outer loop
     vertex  3.000000e+00  0.000000e+00  6.000000e+00
     vertex  3.000000e+00  1.000000e+00  6.000000e+00
     vertex  3.000000e+00  1.000000e+00  0.000000e+00
   endloop
 endfacet
 facet normal -1.000000e+00  0.000000e+00  0.000000e+00
   outer loop
     vertex  3.000000e+00  0.000000e+00  6.000000e+00
     vertex  3.000000e+00  1.000000e+00  0.000000e+00
     vertex  3.000000e+00  0.000000e+00  0.000000e+00
   endloop
 endfacet
 facet normal -5.547002e-01  8.320503e-01  0.000000e+00
   outer loop
     vertex  0.000000e+00  1.000000e+00  6.000000e+00
     vertex  1.500000e+00  2.000000e+00  6.000000e+00
     vertex  1.500000e+00  2.000000e+00  0.000000e+00
   endloop
 endfacet
 facet normal -5.547002e-01  8.320503e-01  0.000000e+00
   outer loop
     vertex  0.000000e+00  1.000000e+00  6.000000e+00
     vertex  1.500000e+00  2.000000e+00  0.000000e+00
     vertex  0.000000e+00  1.000000e+00  0.000000e+00
   endloop
 endfacet
 facet normal -1.000000e+00  0.000000e+00  0.000000e+00
   outer loop
     vertex  0.000000e+00  0.000000e+00  6.000000e+00
     vertex  0.000000e+00  1.000000e+00  6.000000e+00
     vertex  0.000000e+00  1.000000e+00  0.000000e+00
   endloop
 endfacet
 facet normal -1.000000e+00  0.000000e+00  0.000000e+00
   outer loop
     vertex  0.000000e+00  0.000000e+00  6.000000e+00
     vertex  0.000000e+00  1.000000e+00  0.000000e+00
     vertex  0.000000e+00  0.000000e+00  0.000000e+00
   endloop
 endfacet
 facet normal -1.000000e+00  0.000000e+00  0.000000e+00
   outer loop
     vertex  0.000000e+00  5.000000e+00  6.000000e+00
     vertex  0.000000e+00  6.000000e+00  6.000000e+00
     vertex  0.000000e+00  6.000000e+00  0.000000e+00
   endloop
 endfacet
 facet normal -1.000000e+00  0.000000e+00  0.000000e+00
   outer loop
     vertex  0.000000e+00  5.000000e+00  6.000000e+00
     vertex  0.000000e+00  6.000000e+00  0.000000e+00
     vertex  0.000000e+00  5.000000e+00  0.000000e+00
   endloop
 endfacet
 facet normal -5.547002e-01 -8.320503e-01  0.000000e+00
   outer loop
     vertex  1.500000e+00  4.000000e+00  6.000000e+00
     vertex  0.000000e+00  5.000000e+00  6.000000e+00
     vertex  0.000000e+00  5.000000e+00  0.000000e+00
   endloop
 endfacet
 facet normal -5.547002e-01 -8.320503e-01 -0.000000e+00
   outer loop
     vertex  1.500000e+00  4.000000e+00  6.000000e+00
     vertex  0.000000e+00  5.000000e+00  0.000000e+00
     vertex  1.500000e+00  4.000000e+00  0.000000e+00
   endloop
 endfacet
 facet normal -1.000000e+00  0.000000e+00  0.000000e+00
   outer loop
     vertex  1.500000e+00  2.000000e+00  6.000000e+00
     vertex  1.500000e+00  4.000000e+00  6.000000e+00
     vertex  1.500000e+00  4.000000e+00  0.000000e+00
   endloop
 endfacet
 facet normal -1.000000e+00  0.000000e+00  0.000000e+00
   outer loop
     vertex  1.500000e+00  2.000000e+00  6.000000e+00
     vertex  1.500000e+00  4.000000e+00  0.000000e+00
     vertex  1.500000e+00  2.000000e+00  0.000000e+00
   endloop
 endfacet
 facet normal -5.547002e-01 -8.320503e-01  0.000000e+00
   outer loop
     vertex  3.000000e+00  1.000000e+00  6.000000e+00
     vertex  1.500000e+00  2.000000e+00  6.000000e+00
     vertex  1.500000e+00  2.000000e+00  0.000000e+00
   endloop
 endfacet
 facet normal -5.547002e-01 -8.320503e-01 -0.000000e+00
   outer loop
     vertex  3.000000e+00  1.000000e+00  6.000000e+00
     vertex  1.500000e+00  2.000000e+00  0.000000e+00
     vertex  3.000000e+00  1.000000e+00  0.000000e+00
   endloop
 endfacet
 facet normal  5.547002e-01 -8.320503e-01  0.000000e+00
   outer loop
     vertex  4.500000e+00  2.000000e+00  6.000000e+00
     vertex  3.000000e+00  1.000000e+00  6.000000e+00
     vertex  3.000000e+00  1.000000e+00  0.000000e+00
   endloop
 endfacet
 facet normal  5.547002e-01 -8.320503e-01  0.000000e+00
   outer loop
     vertex  4.500000e+00  2.000000e+00  6.000000e+00
     vertex  3.000000e+00  1.000000e+00  0.000000e+00
     vertex  4.500000e+00  2.000000e+00  0.000000e+00
   endloop
 endfacet
 facet normal  1.000000e+00  0.000000e+00  0.000000e+00
   outer loop
     vertex  4.500000e+00  4.000000e+00  6.000000e+00
     vertex  4.500000e+00  2.000000e+00  6.000000e+00
     vertex  4.500000e+00  2.000000e+00  0.000000e+00
   endloop
 endfacet
 facet normal  1.000000e+00  0.000000e+00  0.000000e+00
   outer loop
     vertex  4.500000e+00  4.000000e+00  6.000000e+00
     vertex  4.500000e+00  2.000000e+00  0.000000e+00
     vertex  4.500000e+00  4.000000e+00  0.000000e+00
   endloop
 endfacet
 facet normal  5.547002e-01  8.320503e-01  0.000000e+00
   outer loop
     vertex  3.000000e+00  5.000000e+00  6.000000e+00
     vertex  4.500000e+00  4.000000e+00  6.000000e+00
     vertex  4.500000e+00  4.000000e+00  0.000000e+00
   endloop
 endfacet
 facet normal  5.547002e-01  8.320503e-01  0.000000e+00
   outer loop
     vertex  3.000000e+00  5.000000e+00  6.000000e+00
     vertex  4.500000e+00  4.000000e+00  0.000000e+00
     vertex  3.000000e+00  5.000000e+00  0.000000e+00
   endloop
 endfacet
 facet normal -5.547002e-01  8.320503e-01  0.000000e+00
   outer loop
     vertex  1.500000e+00  4.000000e+00  6.000000e+00
     vertex  3.000000e+00  5.000000e+00  6.000000e+00
     vertex  3.000000e+00  5.000000e+00  0.000000e+00
   endloop
 endfacet
 facet normal -5.547002e-01  8.320503e-01  0.000000e+00
   outer loop
     vertex  1.500000e+00  4.000000e+00  6.000000e+00
     vertex  3.000000e+00  5.000000e+00  0.000000e+00
     vertex  1.500000e+00  4.000000e+00  0.000000e+00
   endloop
 endfacet
endsolid
